<?xml version="1.0" encoding="UTF-8"?>
<svg id="Layer_2" data-name="Layer 2" xmlns="http://www.w3.org/2000/svg" xmlns:xlink="http://www.w3.org/1999/xlink" viewBox="0 0 536.69 147.98">
  <defs>
    <style>
      .cls-1 {
        clip-path: url(#clippath);
      }

      .cls-2, .cls-3 {
        fill: none;
      }

      .cls-2, .cls-4, .cls-5, .cls-6, .cls-7, .cls-8, .cls-9, .cls-10, .cls-11, .cls-12, .cls-13, .cls-14, .cls-15, .cls-16, .cls-17, .cls-18, .cls-19, .cls-20, .cls-21, .cls-22, .cls-23 {
        stroke-width: 0px;
      }

      .cls-24 {
        clip-path: url(#clippath-1);
      }

      .cls-3 {
        stroke: #414242;
        stroke-miterlimit: 10;
        stroke-width: .75px;
      }

      .cls-25 {
        opacity: .2;
      }

      .cls-4 {
        fill: #4b70b7;
      }

      .cls-5 {
        fill: #5f56a5;
      }

      .cls-6 {
        fill: #776db2;
      }

      .cls-7 {
        fill: #60bbe9;
      }

      .cls-8 {
        fill: #2687c5;
      }

      .cls-9 {
        fill: #87ccf0;
      }

      .cls-10 {
        fill: #414242;
      }

      .cls-11 {
        fill: #aed25a;
      }

      .cls-12 {
        fill: #e12327;
      }

      .cls-13 {
        fill: #e2107d;
      }

      .cls-14 {
        fill: #9fcb3b;
      }

      .cls-15 {
        fill: #6b86c3;
      }

      .cls-16 {
        fill: #7ec6ee;
      }

      .cls-17 {
        fill: #ece710;
      }

      .cls-18 {
        fill: #f2a51e;
      }

      .cls-19 {
        fill: #f1ee8a;
      }

      .cls-20 {
        fill: #fff;
      }

      .cls-21 {
        fill: #e75d3f;
      }

      .cls-22 {
        fill: #e76391;
      }

      .cls-23 {
        fill: #f6b443;
      }
    </style>
    <clipPath id="clippath">
      <rect class="cls-2" x="120.21" y="74.16" width=".18" height=".04"/>
    </clipPath>
    <clipPath id="clippath-1">
      <rect class="cls-2" x="7.41" y="74.16" width=".2" height=".05"/>
    </clipPath>
  </defs>
  <circle class="cls-20" cx="63.91" cy="74.23" r="49.51"/>
  <g>
    <path class="cls-10" d="M212.47,109.55c-.91.08-2.33.31-4.23.69-9.3,1.9-17.53,2.86-24.7,2.86-12.96,0-23.59-2.82-31.9-8.46-11.59-7.85-17.38-18.75-17.38-32.7s6.17-25.31,18.52-33.61c8.54-5.72,18.98-8.57,31.33-8.57,5.87,0,12.23.69,19.09,2.06v13.83c-5.18-4.88-12.35-7.32-21.49-7.32-9.83,0-17.91,3.01-24.24,9.03-6.33,6.02-9.49,13.68-9.49,22.98s3.42,17.51,10.27,24.18c6.85,6.67,15.1,10,24.76,10,6.62,0,12.13-.8,16.54-2.4v-16.01c0-4.42-.15-7.32-.45-8.69-.67-3.12-2.27-5.37-4.81-6.75h18.18c-.46,1.45-.69,3.81-.69,7.09v25.61c0,2.74.23,4.8.69,6.17Z"/>
    <path class="cls-10" d="M258.97,100.1l-3.92,11.04h-35.22c1.81-.96,2.96-2.53,3.44-4.72.21-1.01.32-3.07.32-6.16v-33.94c0-3.04-.11-5.07-.32-6.08-.48-2.19-1.63-3.76-3.44-4.72h28.09c1.23,0,2.29-.16,3.2-.48v9.84c-1.49-1.44-3.06-2.37-4.7-2.8-1.22-.37-3.08-.56-5.58-.56-3.51,0-6.4.19-8.69.56v15.77h11.22c1.11,0,2.07-.19,2.87-.56v8.96c-1.17-1.55-3.37-2.32-6.61-2.32h-7.48v20.09c3.56.59,7.02.88,10.37.88,6.7,0,12.18-1.6,16.44-4.8Z"/>
    <path class="cls-10" d="M316.36,55.52c-1.81,1.17-3.02,2.42-3.6,3.72-.59,1.31-.88,3.38-.88,6.2v48.42c-4.12-1.33-8-4.28-11.64-8.86l-29.58-37.55v33.77c0,2.77.31,4.84.92,6.2.61,1.36,1.77,2.6,3.48,3.72h-15.05c1.81-1.17,3.01-2.41,3.6-3.72.59-1.31.88-3.37.88-6.2v-35.78c0-2.77-.31-4.84-.92-6.2-.61-1.36-1.77-2.6-3.48-3.72h12.33c.11.32.77,1.36,2,3.12l31.3,39.86v-33.06c0-2.77-.31-4.83-.92-6.16-.61-1.33-1.8-2.59-3.56-3.76h15.13Z"/>
    <path class="cls-10" d="M336.53,111.15h-16.01c1.81-.96,2.96-2.53,3.44-4.72.21-.96.32-2.99.32-6.08v-34.02c0-3.09-.11-5.12-.32-6.08-.48-2.19-1.63-3.76-3.44-4.72h16.01c-1.78.96-2.9,2.53-3.37,4.72-.21.96-.31,2.99-.31,6.08v34.02c0,3.1.1,5.12.31,6.08.47,2.19,1.59,3.76,3.37,4.72Z"/>
    <path class="cls-10" d="M380.87,94.9c0,4.27-1.73,8.08-5.2,11.45-4.32,4.16-10.22,6.24-17.69,6.24-5.07,0-10.03-.88-14.89-2.64l-2.56-10.49c5.71,4.48,11.9,6.72,18.57,6.72,3.57,0,6.58-.83,9-2.48,2.43-1.65,3.64-3.71,3.64-6.16s-.93-4.35-2.8-6c-1.6-1.39-5.22-3.36-10.84-5.92-5.63-2.56-9.51-4.8-11.65-6.72-2.94-2.67-4.4-5.92-4.4-9.77,0-4.53,1.91-8.16,5.72-10.89,3.81-2.72,8.92-4.08,15.33-4.08,4.21,0,8.51.61,12.89,1.84v9.6c-3.79-3.68-8.24-5.52-13.37-5.52-3.31,0-5.99.73-8.04,2.2-2.05,1.47-3.08,3.38-3.08,5.72,0,2.08.81,3.83,2.44,5.24,1.63,1.41,4.97,3.3,10.04,5.64,6.03,2.78,10.14,5.04,12.33,6.8,3.04,2.4,4.56,5.47,4.56,9.2Z"/>
    <path class="cls-10" d="M423.85,54.96l-2.71,10.08c-.74-1.44-1.86-2.37-3.35-2.8-.9-.27-2.42-.4-4.54-.4-.42,0-1.13.04-2.11.12-.98.08-2.24.12-3.78.12h-1.35v39.14c0,2.78.29,4.82.86,6.12.58,1.31,1.76,2.58,3.54,3.8h-16.73c1.81-.96,2.96-2.53,3.44-4.72.21-1.01.32-3.04.32-6.08v-38.26c-1.65-.16-3.92-.24-6.8-.24-2.56,0-4.48.16-5.76.48-1.66.43-3.39,1.33-5.2,2.72l3.12-10.08c1.12.37,2.56.56,4.32.56h31.78c.69,0,1.79-.05,3.28-.16.27-.05.83-.19,1.68-.4Z"/>
    <path class="cls-10" d="M477.55,111.15h-17.53c2.03-1.23,3.04-2.35,3.04-3.37,0-.64-.47-2.22-1.42-4.73l-5-12.88h-21.36l-4.82,12.88c-.63,1.71-.94,3.15-.94,4.33,0,1.44,1.01,2.7,3.04,3.76h-15.53c1.92-1.23,3.33-2.51,4.24-3.84.91-1.33,2.11-3.84,3.6-7.52l14.89-37.14c.64-1.6.96-2.88.96-3.84,0-1.33-.85-2.43-2.56-3.28h13.45l17.77,44.26c1.33,3.36,2.56,5.82,3.68,7.36,1.12,1.55,2.61,2.88,4.48,4ZM454.43,84.65l-8.51-22.07-8.59,22.07h17.1Z"/>
    <path class="cls-10" d="M528.62,111.15c-4.16.32-6.75.48-7.76.48-2.4,0-4.47-.56-6.2-1.68-1.73-1.12-4.02-3.35-6.84-6.7-5.39-6.38-10.33-13.38-14.81-20.98,9.39-1.6,14.09-5.61,14.09-12.05,0-2.77-.94-5.01-2.83-6.74-1.89-1.73-4.34-2.59-7.37-2.59-1.65,0-3.61.21-5.89.64v38.86c0,3.09.1,5.11.31,6.06.47,2.18,1.59,3.75,3.37,4.71h-16.01c1.81-.96,2.96-2.53,3.44-4.72.21-.96.32-2.99.32-6.08v-34.02c0-3.09-.11-5.12-.32-6.08-.48-2.19-1.63-3.76-3.44-4.72h19.77c5.39,0,9.55,1.09,12.49,3.27,3.73,2.77,5.6,6.36,5.6,10.77,0,3.25-1.28,6.21-3.84,8.9-2.56,2.69-5.84,4.54-9.84,5.55,6.29,8.46,11.33,14.66,15.09,18.6,3.76,3.94,7.32,6.78,10.69,8.54Z"/>
  </g>
  <g>
    <g>
      <path class="cls-3" d="M82.82,119.96l2.67,6.44c1.37-.57,2.71-1.18,4.02-1.85l-3.17-6.21c-1.15.59-2.33,1.13-3.52,1.62Z"/>
      <path class="cls-3" d="M75.45,122.35l1.63,6.78c1.44-.35,2.86-.75,4.26-1.2l-2.16-6.63c-1.22.4-2.47.75-3.73,1.05Z"/>
      <path class="cls-3" d="M89.73,116.44l3.64,5.95c1.26-.77,2.49-1.59,3.68-2.46l-4.1-5.64c-1.05.76-2.12,1.48-3.23,2.16Z"/>
      <path class="cls-3" d="M79.18,121.3l2.16,6.63c1.41-.46,2.79-.97,4.15-1.53l-2.67-6.44c-1.19.49-2.4.94-3.64,1.34Z"/>
      <path class="cls-3" d="M86.34,118.34l3.17,6.21c1.32-.67,2.61-1.39,3.86-2.16l-3.64-5.95c-1.1.67-2.23,1.31-3.38,1.9Z"/>
      <path class="cls-3" d="M92.95,114.29l4.1,5.64c1.2-.87,2.36-1.78,3.48-2.74l-4.53-5.3c-.98.84-2,1.64-3.05,2.4Z"/>
      <path class="cls-3" d="M103.9,103.37c-.76,1.05-1.57,2.06-2.41,3.04l5.3,4.53c.96-1.12,1.88-2.28,2.75-3.47l-5.64-4.1Z"/>
      <path class="cls-3" d="M98.86,109.26l4.93,4.93c1.05-1.04,2.05-2.13,3.01-3.25l-5.3-4.53c-.84.98-1.72,1.93-2.64,2.84Z"/>
      <path class="cls-3" d="M71.64,123.1l1.09,6.89c1.47-.23,2.91-.52,4.34-.86l-1.63-6.78c-1.25.3-2.52.55-3.8.75Z"/>
      <path class="cls-3" d="M96,111.89l4.53,5.3c1.12-.96,2.21-1.96,3.26-3l-4.93-4.93c-.92.91-1.87,1.79-2.85,2.63Z"/>
      <path class="cls-3" d="M38.1,116.45l-3.64,5.95c1.26.77,2.54,1.49,3.86,2.16l3.17-6.21c-1.16-.59-2.29-1.22-3.39-1.89Z"/>
      <path class="cls-3" d="M41.48,118.35l-3.17,6.21c1.31.67,2.65,1.28,4.02,1.85l2.67-6.44c-1.2-.5-2.38-1.04-3.53-1.62Z"/>
      <path class="cls-3" d="M45.01,119.97l-2.67,6.44c1.36.56,2.74,1.07,4.15,1.53l2.16-6.63c-1.24-.4-2.45-.85-3.64-1.34Z"/>
      <path class="cls-3" d="M34.87,114.3l-4.1,5.64c1.19.87,2.42,1.69,3.68,2.46l3.64-5.95c-1.11-.68-2.18-1.4-3.23-2.15Z"/>
      <path class="cls-3" d="M28.96,109.27l-4.93,4.93,4.93-4.93c-.92-.91-1.8-1.86-2.64-2.84l-5.3,4.52,5.3-4.52c-.84-.98-1.65-2-2.41-3.04l-5.63,4.09,5.63-4.09c-.76-1.04-1.49-2.12-2.17-3.22l-5.92,3.63,5.92-3.63c-.68-1.1-1.32-2.23-1.91-3.38l-6.17,3.14,6.17-3.14c-.59-1.15-1.14-2.33-1.64-3.52l-6.39,2.65,6.39-2.65c-.5-1.19-.95-2.41-1.35-3.64l-6.57,2.13,6.57-2.13c-.4-1.23-.76-2.47-1.06-3.74l-6.71,1.61,6.71-1.61c-.3-1.25-.56-2.52-.77-3.81l-6.81,1.08,6.81-1.08c-.2-1.27-.36-2.56-.46-3.86l-6.86.54,6.86-.54c-.1-1.28-.16-2.58-.16-3.89h-6.87,6.87s0-.09,0-.13c0-1.26.05-2.51.14-3.75l-6.84-.54,6.84.54c.1-1.3.25-2.59.44-3.87l-6.76-1.07,6.76,1.07c.2-1.29.45-2.56.75-3.82l-6.65-1.6,6.65,1.6c.3-1.27.65-2.52,1.05-3.75l-6.49-2.11,6.49,2.11c.4-1.24.85-2.46,1.34-3.66l-6.29-2.61,6.29,2.61c.5-1.2,1.04-2.39,1.62-3.54l-6.06-3.09,6.06,3.09c.59-1.16,1.22-2.29,1.9-3.4l-5.8-3.55,5.8,3.55c.68-1.11,1.4-2.19,2.16-3.24l-5.5-4,5.5,4c.76-1.05,1.57-2.07,2.41-3.06l-5.16-4.41,5.16,4.41c.84-.99,1.72-1.95,2.64-2.87l-4.8-4.8,4.8,4.8c.92-.92,1.87-1.8,2.86-2.65l-4.4-5.15,4.4,5.15c.99-.85,2.01-1.65,3.06-2.42l-3.98-5.48,3.98,5.48c1.05-.77,2.13-1.49,3.23-2.17l-3.53-5.76,3.53,5.76c1.1-.68,2.24-1.32,3.4-1.91l-3.07-6.01,3.07,6.01c1.15-.59,2.34-1.13,3.54-1.63l-2.58-6.23,2.58,6.23c1.2-.5,2.42-.95,3.66-1.35l-2.08-6.41,2.08,6.41c1.23-.4,2.48-.75,3.75-1.06l-1.57-6.56,1.57,6.56c1.26-.3,2.53-.56,3.82-.76l-1.06-6.66,1.06,6.66c1.28-.2,2.57-.35,3.87-.46l-.53-6.73.53,6.73c1.28-.1,2.58-.15,3.88-.15,0,0,0,0,.01,0v-6.75,6.75c1.31,0,2.61.05,3.9.15l.53-6.73-.53,6.73c1.31.1,2.6.26,3.87.46l1.06-6.67-1.06,6.67c1.29.2,2.57.46,3.82.76l1.58-6.56-1.58,6.56c1.27.31,2.52.66,3.75,1.06l2.09-6.42-2.09,6.42c1.24.4,2.46.86,3.66,1.35l2.59-6.24-2.59,6.24c1.2.5,2.38,1.05,3.54,1.64l3.07-6.02-3.07,6.02c1.16.59,2.29,1.23,3.39,1.92l3.54-5.78-3.54,5.78c1.11.68,2.19,1.41,3.23,2.17l3.99-5.49-3.99,5.49c1.05.77,2.07,1.57,3.05,2.42l4.41-5.17-4.41,5.17c.99.85,1.94,1.73,2.85,2.65l4.81-4.81-4.81,4.81c.92.92,1.79,1.88,2.64,2.87l5.18-4.42-5.18,4.42c.84.99,1.64,2.01,2.41,3.06l5.51-4.01-5.51,4.01c.76,1.05,1.48,2.13,2.16,3.24l5.82-3.56-5.82,3.56c.68,1.11,1.31,2.24,1.9,3.4l6.08-3.1-6.08,3.1c.59,1.15,1.13,2.33,1.62,3.54l6.32-2.62-6.32,2.62c.49,1.19.94,2.41,1.34,3.65l6.51-2.12-6.51,2.12c.4,1.23.74,2.48,1.05,3.75l6.67-1.6-6.67,1.6c.3,1.25.55,2.53.75,3.82l6.79-1.07-6.79,1.07c.2,1.27.34,2.56.44,3.86l6.86-.54-6.86.54c.09,1.24.14,2.49.14,3.75,0,.04,0,.09,0,.13h6.9-6.9c0,1.31-.06,2.6-.16,3.88l6.89.54-6.89-.54c-.1,1.3-.26,2.59-.46,3.86l6.83,1.08-6.83-1.08c-.21,1.29-.46,2.56-.76,3.81l6.73,1.62-6.73-1.62c-.31,1.26-.66,2.51-1.06,3.74l6.59,2.14-6.59-2.14c-.4,1.24-.86,2.45-1.35,3.64l6.41,2.65-6.41-2.65c-.5,1.2-1.05,2.37-1.63,3.52l6.19,3.15-6.19-3.15c-.59,1.15-1.23,2.28-1.91,3.38l5.94,3.64-5.94-3.64c-.68,1.1-1.4,2.18-2.17,3.22l5.64,4.1c6.82-9.34,10.85-20.84,10.85-33.29,0-31.2-25.29-56.49-56.49-56.49S7.41,42.99,7.41,74.19c0,17.23,7.72,32.65,19.88,43.02l4.53-5.3c-.99-.84-1.94-1.71-2.86-2.63Z"/>
      <path class="cls-3" d="M31.82,111.9l-4.53,5.3c1.12.96,2.28,1.87,3.48,2.74l4.1-5.64c-1.05-.76-2.07-1.56-3.05-2.4Z"/>
      <path class="cls-3" d="M63.9,123.7c-1.3,0-2.59-.05-3.86-.15l-.55,6.95c1.46.11,2.93.17,4.41.17h.01v-6.97h-.01Z"/>
      <path class="cls-3" d="M63.92,123.7v6.97c1.49,0,2.96-.06,4.42-.17l-.55-6.95c-1.28.1-2.57.15-3.87.15Z"/>
      <path class="cls-3" d="M67.79,123.55l.55,6.95c1.48-.11,2.95-.29,4.39-.52l-1.09-6.89c-1.27.2-2.55.35-3.85.45Z"/>
      <path class="cls-3" d="M48.65,121.31l-2.16,6.63c1.4.45,2.82.85,4.26,1.2l1.63-6.78c-1.26-.3-2.51-.65-3.73-1.05Z"/>
      <path class="cls-3" d="M56.19,123.1l-1.09,6.89c1.45.23,2.91.4,4.4.51l.55-6.95c-1.3-.1-2.58-.25-3.85-.45Z"/>
      <path class="cls-3" d="M52.38,122.35l-1.63,6.78c1.43.34,2.88.63,4.34.86l1.09-6.89c-1.29-.2-2.55-.45-3.81-.75Z"/>
    </g>
    <polygon class="cls-21" points="28.68 39.01 64.48 65.23 63.92 74.18 28.68 39.01"/>
    <polygon class="cls-12" points="28.74 38.95 54.96 74.75 63.91 74.19 28.74 38.95"/>
    <polygon class="cls-16" points="99.15 109.35 63.34 83.13 63.91 74.18 99.15 109.35"/>
    <polygon class="cls-7" points="99.08 109.42 72.86 73.61 63.91 74.18 99.08 109.42"/>
    <polygon class="cls-6" points="28.74 109.42 54.96 73.61 63.91 74.18 28.74 109.42"/>
    <polygon class="cls-5" points="28.68 109.35 64.48 83.13 63.92 74.18 28.68 109.35"/>
    <polygon class="cls-19" points="99.08 38.95 72.86 74.75 63.91 74.19 99.08 38.95"/>
    <polygon class="cls-17" points="99.15 39.01 63.34 65.23 63.91 74.18 99.15 39.01"/>
    <g class="cls-25">
      <g class="cls-1">
        <path class="cls-8" d="M120.39,74.21s0-.01,0-.02c0,0,0-.02,0-.02l-.18.02.18.02Z"/>
      </g>
    </g>
    <g class="cls-25">
      <g class="cls-24">
        <path class="cls-8" d="M7.41,74.16s0,.02,0,.03c0,0,0,.01,0,.02l.2-.02-.2-.02Z"/>
      </g>
    </g>
    <polygon class="cls-8" points="63.92 74.18 63.92 74.18 63.92 74.18 63.92 74.18"/>
    <polygon class="cls-9" points="63.9 74.18 63.9 74.18 63.9 74.18 63.9 74.18"/>
    <polygon class="cls-23" points="65.42 24.71 64.72 17.72 63.97 10.22 63.96 17.7 63.95 24.67 63.91 70.13 63.91 74.17 69.8 68.28 65.42 24.71"/>
    <polygon class="cls-18" points="63.86 17.7 63.85 10.22 63.1 17.72 62.39 24.71 58 68.28 63.91 74.17 63.91 70.13 63.87 24.67 63.86 17.7"/>
    <path class="cls-23" d="M63.9,17.7s.04,0,.06,0v-7.48s-.05-.56-.05-.56l-.06.56v7.48s.04,0,.05,0"/>
    <path class="cls-23" d="M63.95,24.67s-.03,0-.05,0c-.01,0-.02,0-.04,0l.04,45.46.04-45.46Z"/>
    <path class="cls-23" d="M63.95,24.67v-6.97s-.03,0-.05,0c-.01,0-.03,0-.04,0v6.97s.03,0,.04,0c.02,0,.03,0,.05,0"/>
    <polygon class="cls-8" points="63.9 74.18 63.89 74.19 63.9 74.19 63.9 74.18"/>
    <polygon class="cls-15" points="63.91 74.2 58 80.11 62.39 123.67 63.1 130.66 63.85 138.15 63.86 130.68 63.87 123.7 63.91 78.24 63.91 74.2"/>
    <polygon class="cls-8" points="63.91 74.18 63.9 74.18 63.9 74.18 63.9 74.19 63.91 74.19 63.91 74.18 63.91 74.18"/>
    <polygon class="cls-9" points="63.92 74.19 63.92 74.19 63.92 74.18 63.92 74.19"/>
    <polygon class="cls-4" points="63.91 74.19 63.91 78.24 63.95 123.7 63.96 130.68 63.97 138.14 64.72 130.66 65.42 123.67 69.8 80.09 63.91 74.19"/>
    <polygon class="cls-9" points="63.91 74.18 63.91 74.18 63.91 74.19 63.92 74.19 63.92 74.18 63.92 74.18 63.91 74.18"/>
    <path class="cls-4" d="M63.87,123.7s.02,0,.04,0c.02,0,.03,0,.05,0l-.04-45.47-.04,45.47Z"/>
    <path class="cls-4" d="M63.9,130.68s-.03,0-.04,0v7.47s.05.56.05.56l.06-.56v-7.47s-.04,0-.06,0"/>
    <path class="cls-4" d="M63.87,123.7v6.97s.02,0,.04,0c.02,0,.04,0,.06,0v-6.97s-.04,0-.06,0c-.01,0-.02,0-.04,0"/>
    <path class="cls-8" d="M7.18,74.23h.23s0-.02,0-.03l-.23.03Z"/>
    <polygon class="cls-8" points="63.91 74.18 63.91 74.18 63.91 74.17 63.91 74.17 63.91 74.18 63.91 74.18"/>
    <polygon class="cls-22" points="58 68.28 14.41 73.39 8.03 74.13 14.39 74.14 60.39 74.18 63.9 74.18 58 68.28"/>
    <path class="cls-8" d="M7.61,74.18l-.2.02v.03h.61s-.42-.05-.42-.05Z"/>
    <polygon class="cls-18" points="63.91 74.18 63.91 74.18 63.91 74.17 58 68.28 63.9 74.18 63.9 74.18 63.91 74.18"/>
    <polygon class="cls-8" points="63.91 74.18 63.9 74.18 63.91 74.18 63.91 74.18"/>
    <polygon class="cls-9" points="63.91 74.19 63.91 74.19 63.91 74.19 63.91 74.2 63.91 74.19 63.91 74.19"/>
    <path class="cls-9" d="M7.18,74.13l.23.03s0-.02,0-.03h-.23Z"/>
    <path class="cls-9" d="M8.03,74.13h-.62s0,.02,0,.03l.2.02.42-.05Z"/>
    <polygon class="cls-13" points="63.89 74.19 60.39 74.18 14.39 74.23 8.03 74.23 14.41 74.99 57.97 80.13 58 80.11 58 80.09 63.89 74.19"/>
    <polygon class="cls-15" points="63.91 74.19 63.91 74.19 63.9 74.19 63.89 74.19 58 80.09 58 80.11 63.91 74.2 63.91 74.19"/>
    <polygon class="cls-9" points="63.91 74.19 63.91 74.19 63.9 74.19 63.91 74.19"/>
    <path class="cls-22" d="M14.39,74.19s0,.03,0,.04l46-.04-46-.04s0,.03,0,.05"/>
    <path class="cls-9" d="M14.39,74.19s0-.03,0-.05h-6.35s-.42.04-.42.04l.42.05h6.36s0-.03,0-.05"/>
    <path class="cls-8" d="M120.64,74.13h-.25s0,.02,0,.03l.25-.03Z"/>
    <polygon class="cls-8" points="63.91 74.19 63.91 74.19 63.91 74.19 63.91 74.19"/>
    <path class="cls-8" d="M120.21,74.18l.18-.02s0-.02,0-.03h-.6s.42.05.42.05Z"/>
    <polygon class="cls-11" points="113.42 74.23 67.44 74.18 63.93 74.19 69.8 80.09 113.4 74.98 119.79 74.23 113.42 74.23"/>
    <polygon class="cls-8" points="63.92 74.19 63.92 74.19 63.91 74.19 63.91 74.19 69.8 80.09 63.92 74.19 63.92 74.19"/>
    <polygon class="cls-8" points="63.91 74.19 63.91 74.19 63.91 74.19 63.91 74.19 63.91 74.19 63.91 74.19"/>
    <polygon class="cls-8" points="63.91 74.19 63.91 74.19 63.91 74.19 63.92 74.19 63.92 74.19 63.91 74.19 63.91 74.19"/>
    <polygon class="cls-8" points="63.91 74.19 63.92 74.19 63.91 74.19 63.91 74.19"/>
    <polygon class="cls-9" points="63.91 74.18 63.91 74.17 63.91 74.18 63.91 74.18"/>
    <path class="cls-9" d="M120.39,74.21s0,.02,0,.03h.25l-.25-.03Z"/>
    <polygon class="cls-14" points="113.4 73.39 69.8 68.28 63.92 74.18 67.44 74.18 113.42 74.14 119.79 74.13 113.4 73.39"/>
    <path class="cls-9" d="M120.21,74.18l-.42.05h.6s0-.02,0-.03l-.18-.02Z"/>
    <polygon class="cls-14" points="63.92 74.18 63.92 74.18 63.92 74.18 69.8 68.28 63.91 74.17 63.91 74.18 63.92 74.18"/>
    <polygon class="cls-9" points="63.91 74.18 63.91 74.18 63.91 74.18 63.91 74.18 63.91 74.18 63.91 74.18"/>
    <rect class="cls-9" x="63.91" y="74.18" width="0" height="0"/>
    <polygon class="cls-9" points="63.91 74.18 63.92 74.18 63.91 74.18 63.91 74.18"/>
    <path class="cls-14" d="M113.42,74.23s0-.03,0-.04c0-.02,0-.03,0-.05l-45.98.04,45.98.04Z"/>
    <path class="cls-9" d="M113.42,74.14s0,.03,0,.05c0,.01,0,.03,0,.04h6.37s.42-.04.42-.04l-.42-.05h-6.37Z"/>
  </g>
  <g>
    <path class="cls-10" d="M222.4,119.79v6.68h8.79v1.55h-8.79v7.21h-1.8v-17h11.66v1.55h-9.86Z"/>
    <path class="cls-10" d="M234.97,118.43c0-.66.56-1.21,1.26-1.21s1.26.53,1.26,1.19c0,.7-.53,1.26-1.26,1.26s-1.26-.56-1.26-1.24ZM235.36,122.47h1.72v12.78h-1.72v-12.78Z"/>
    <path class="cls-10" d="M253.65,127.84v7.41h-1.72v-7.24c0-2.7-1.41-4.08-3.84-4.08-2.74,0-4.47,1.7-4.47,4.62v6.7h-1.72v-12.78h1.65v2.36c.92-1.55,2.65-2.45,4.86-2.45,3.11,0,5.25,1.8,5.25,5.47Z"/>
    <path class="cls-10" d="M267.98,127.33v7.92h-1.65v-1.99c-.78,1.31-2.28,2.11-4.4,2.11-2.89,0-4.66-1.51-4.66-3.72,0-1.97,1.26-3.62,4.93-3.62h4.06v-.78c0-2.19-1.24-3.38-3.62-3.38-1.65,0-3.21.58-4.25,1.51l-.78-1.29c1.29-1.09,3.18-1.72,5.2-1.72,3.3,0,5.17,1.65,5.17,4.96ZM266.26,131.41v-2.09h-4.01c-2.48,0-3.28.97-3.28,2.28,0,1.48,1.19,2.4,3.23,2.4s3.38-.92,4.06-2.6Z"/>
    <path class="cls-10" d="M284.42,127.84v7.41h-1.72v-7.24c0-2.7-1.41-4.08-3.84-4.08-2.75,0-4.47,1.7-4.47,4.62v6.7h-1.73v-12.78h1.65v2.36c.92-1.55,2.65-2.45,4.86-2.45,3.11,0,5.25,1.8,5.25,5.47Z"/>
    <path class="cls-10" d="M287.87,128.86c0-3.81,2.77-6.49,6.58-6.49,2.16,0,3.98.85,5,2.53l-1.29.88c-.88-1.29-2.24-1.89-3.72-1.89-2.79,0-4.83,1.99-4.83,4.98s2.04,4.98,4.83,4.98c1.48,0,2.84-.58,3.72-1.87l1.29.87c-1.02,1.65-2.84,2.53-5,2.53-3.81,0-6.58-2.7-6.58-6.51Z"/>
    <path class="cls-10" d="M302.44,118.43c0-.66.56-1.21,1.26-1.21s1.26.53,1.26,1.19c0,.7-.54,1.26-1.26,1.26s-1.26-.56-1.26-1.24ZM302.82,122.47h1.72v12.78h-1.72v-12.78Z"/>
    <path class="cls-10" d="M319,127.33v7.92h-1.65v-1.99c-.78,1.31-2.28,2.11-4.4,2.11-2.89,0-4.66-1.51-4.66-3.72,0-1.97,1.26-3.62,4.93-3.62h4.06v-.78c0-2.19-1.24-3.38-3.62-3.38-1.65,0-3.21.58-4.25,1.51l-.78-1.29c1.29-1.09,3.18-1.72,5.2-1.72,3.3,0,5.17,1.65,5.17,4.96ZM317.28,131.41v-2.09h-4.01c-2.48,0-3.28.97-3.28,2.28,0,1.48,1.19,2.4,3.23,2.4s3.38-.92,4.06-2.6Z"/>
    <path class="cls-10" d="M323.68,117.22h1.72v18.02h-1.72v-18.02Z"/>
    <path class="cls-10" d="M338.74,119.79v6.68h8.79v1.55h-8.79v7.21h-1.8v-17h11.66v1.55h-9.86Z"/>
    <path class="cls-10" d="M358.15,122.37v1.68c-.15,0-.29-.02-.41-.02-2.67,0-4.3,1.7-4.3,4.71v6.51h-1.72v-12.78h1.65v2.5c.8-1.7,2.43-2.6,4.79-2.6Z"/>
    <path class="cls-10" d="M372.26,129.39h-10.69c.19,2.67,2.24,4.45,5.03,4.45,1.55,0,2.94-.56,3.91-1.68l.97,1.12c-1.14,1.36-2.92,2.09-4.93,2.09-3.98,0-6.71-2.72-6.71-6.51s2.65-6.49,6.24-6.49,6.19,2.65,6.19,6.49c0,.15-.02.34-.02.53ZM361.57,128.1h9.06c-.22-2.5-2.04-4.25-4.54-4.25s-4.3,1.75-4.52,4.25Z"/>
    <path class="cls-10" d="M386.92,129.39h-10.69c.19,2.67,2.24,4.45,5.03,4.45,1.55,0,2.94-.56,3.91-1.68l.97,1.12c-1.14,1.36-2.92,2.09-4.93,2.09-3.98,0-6.71-2.72-6.71-6.51s2.65-6.49,6.24-6.49,6.19,2.65,6.19,6.49c0,.15-.02.34-.02.53ZM376.24,128.1h9.06c-.22-2.5-2.04-4.25-4.54-4.25s-4.3,1.75-4.52,4.25Z"/>
    <path class="cls-10" d="M402.13,117.22v18.02h-1.65v-2.53c-1.04,1.72-2.82,2.65-4.93,2.65-3.64,0-6.36-2.65-6.36-6.51s2.72-6.49,6.36-6.49c2.04,0,3.79.88,4.86,2.53v-7.68h1.72ZM400.42,128.86c0-2.99-2.04-4.98-4.74-4.98s-4.76,1.99-4.76,4.98,2.04,4.98,4.76,4.98,4.74-1.99,4.74-4.98Z"/>
    <path class="cls-10" d="M405.64,128.86c0-3.79,2.77-6.49,6.51-6.49s6.49,2.7,6.49,6.49-2.75,6.51-6.49,6.51-6.51-2.72-6.51-6.51ZM416.89,128.86c0-2.99-2.02-4.98-4.74-4.98s-4.76,1.99-4.76,4.98,2.04,4.98,4.76,4.98,4.74-1.99,4.74-4.98Z"/>
    <path class="cls-10" d="M443.24,127.84v7.41h-1.72v-7.24c0-2.7-1.36-4.08-3.67-4.08-2.62,0-4.28,1.7-4.28,4.62v6.7h-1.72v-7.24c0-2.7-1.36-4.08-3.69-4.08-2.6,0-4.28,1.7-4.28,4.62v6.7h-1.72v-12.78h1.65v2.33c.9-1.53,2.55-2.43,4.69-2.43s3.77.9,4.54,2.7c.92-1.65,2.74-2.7,5.05-2.7,3.11,0,5.15,1.8,5.15,5.47Z"/>
    <path class="cls-10" d="M456.45,119.79v6.68h8.79v1.55h-8.79v7.21h-1.8v-17h11.66v1.55h-9.86Z"/>
    <path class="cls-10" d="M467.93,128.86c0-3.79,2.77-6.49,6.51-6.49s6.49,2.7,6.49,6.49-2.75,6.51-6.49,6.51-6.51-2.72-6.51-6.51ZM479.18,128.86c0-2.99-2.02-4.98-4.74-4.98s-4.76,1.99-4.76,4.98,2.04,4.98,4.76,4.98,4.74-1.99,4.74-4.98Z"/>
    <path class="cls-10" d="M490.88,122.37v1.68c-.15,0-.29-.02-.41-.02-2.67,0-4.3,1.7-4.3,4.71v6.51h-1.72v-12.78h1.65v2.5c.8-1.7,2.43-2.6,4.79-2.6Z"/>
    <path class="cls-10" d="M511.57,130.7h-9.47l-2.04,4.54h-1.87l7.77-17h1.77l7.77,17h-1.9l-2.04-4.54ZM510.92,129.24l-4.08-9.13-4.08,9.13h8.16Z"/>
    <path class="cls-10" d="M517.96,117.22h1.72v18.02h-1.72v-18.02Z"/>
    <path class="cls-10" d="M524.49,117.22h1.72v18.02h-1.72v-18.02Z"/>
  </g>
</svg>